# xmcd
#
# Track frame offsets:
#       150
#       13302
#       28252
#       45520
#       57180
#       74085
#       87757
#       102320
#       114342
#       128785
#       143172
#       153902
#       165484
#       177637
#
# Disc length: 2525 seconds
#
# Revision: 1
# Processed by: cddbd v1.4PL0 Copyright (c) Steve Scherf et al.
# Submitted via: MusiCat 1.1
#
DISCID=bf09db0e
DTITLE=Johnny Bush - Johnny Bush is back
DYEAR=1900
DGENRE=
TTITLE0=Pathway To Your Door
TTITLE1=I Can Feel him Touching You "All Over Me"
TTITLE2=Wino's prayer
TTITLE3=Shell Of a man
TTITLE4=September  In Your Eyes
TTITLE5=Soul Of The Wine
TTITLE6=This Hell You've Put Me In
TTITLE7=Jim Jack and Rose
TTITLE8=An Eyes For An Eye
TTITLE9=Pour The Wine
TTITLE10=Drivin Nails In My Coffin
TTITLE11=Whiskey River
TTITLE12=Amarillo Depot
TTITLE13=When My Conscience Hurts the Most
EXTD=\n\n
EXTT0=
EXTT1=
EXTT2=
EXTT3=
EXTT4=
EXTT5=
EXTT6=
EXTT7=
EXTT8=
EXTT9=
EXTT10=
EXTT11=
EXTT12=
EXTT13=
PLAYORDER=
